Coordinates
version=1
nRows=22
nColumns=24
inDegrees=yes

Units are S.I. units (second, meters, Newtons, ...)
Angles are in degrees.

endheader
time	pelvis_tilt	pelvis_list	pelvis_rotation	pelvis_tx	pelvis_ty	pelvis_tz	hip_flexion_r	hip_adduction_r	hip_rotation_r	knee_angle_r	ankle_angle_r	subtalar_angle_r	mtp_angle_r	hip_flexion_l	hip_adduction_l	hip_rotation_l	knee_angle_l	ankle_angle_l	subtalar_angle_l	mtp_angle_l	lumbar_extension	lumbar_bending	lumbar_rotation
      4.57500000	     12.85359274	      9.02514965	     16.68482049	     -0.03381673	      0.74514657	     -0.32440484	     10.38208246	    -10.63319331	    -12.90020750	    -14.98499983	     21.12116621	     10.68631276	      0.00000000	    -21.56632735	      5.57716912	     10.93547945	    -36.54958489	     24.24913763	     17.47522218	      0.00000000	    -32.88218501	      3.17470701	     -9.18045196
      4.58000000	     12.77597130	      8.59079800	     16.84543445	     -0.02571252	      0.74497745	     -0.32403311	     10.26324895	     -9.90091890	    -12.40965975	    -15.47828891	     20.48611169	      9.41853253	      0.00000000	    -20.57608025	      5.08152591	     10.58007596	    -38.95249501	     22.36950922	     17.16977633	      0.00000000	    -32.56706170	      3.55486537	     -8.73523919
      4.58500000	     12.76830114	      8.09444764	     16.89096866	     -0.01760690	      0.74486444	     -0.32355188	     10.11177789	     -9.06537179	    -11.80544110	    -15.97933919	     19.79856929	      8.16482049	      0.00000000	    -19.58896794	      4.52711659	     10.06795209	    -41.34402738	     20.31817121	     16.81281487	      0.00000000	    -32.32779454	      3.96424353	     -8.15239431
      4.59000000	     12.76381687	      7.55584066	     16.92087189	     -0.00953515	      0.74478420	     -0.32307002	      9.96889975	     -8.19209365	    -11.18393800	    -16.49235179	     19.11601947	      6.98904371	      0.00000000	    -18.53905594	      3.93608959	      9.55946721	    -43.72450740	     18.07130489	     16.33604421	      0.00000000	    -32.09074488	      4.42120173	     -7.56298649
      4.59500000	     12.76573771	      6.98745794	     16.92778068	     -0.00153817	      0.74472985	     -0.32255325	      9.83557704	     -7.29384727	    -10.58353387	    -17.01349418	     18.43753229	      5.90542779	      0.00000000	    -17.42646068	      3.31531825	      9.03007331	    -46.09293020	     15.71118577	     15.74176203	      0.00000000	    -31.87748467	      4.89981236	     -6.95859366
      4.60000000	     12.78680172	      6.37940798	     16.94198991	      0.00640313	      0.74470928	     -0.32206005	      9.68687759	     -6.36757342	    -10.07746738	    -17.53909683	     17.87554439	      4.96876661	      0.00000000	    -16.27938023	      2.65722750	      8.54938886	    -48.41922645	     13.31305729	     14.93036555	      0.00000000	    -31.68990059	      5.43204726	     -6.34282470
      4.60500000	     12.80232906	      5.75034959	     16.94577217	      0.01427540	      0.74472166	     -0.32154758	      9.53379297	     -5.42519623	     -9.55829009	    -18.02596612	     17.37177509	      4.15532140	      0.00000000	    -15.08049280	      1.98784406	      8.11852058	    -50.68080372	     10.90755107	     14.06868111	      0.00000000	    -31.51108620	      5.98052344	     -5.74755098
      4.61000000	     12.83265045	      5.10170400	     16.94892331	      0.02206526	      0.74476617	     -0.32105454	      9.36605808	     -4.47946611	     -9.14856567	    -18.50697432	     16.96191856	      3.49068370	      0.00000000	    -13.85786751	      1.30568016	      7.73261668	    -52.87039866	      8.62565204	     13.07011612	      0.00000000	    -31.36583902	      6.55903896	     -5.15583225
      4.61500000	     12.86663961	      4.44103991	     16.95311636	      0.02977242	      0.74484028	     -0.32058038	      9.18355731	     -3.53601093	     -8.82152308	    -18.95886627	     16.64988830	      2.95739768	      0.00000000	    -12.60839304	      0.62732841	      7.41374922	    -54.97548645	      6.53127704	     11.99461579	      0.00000000	    -31.24299721	      7.15498411	     -4.57782952
      4.62000000	     12.91551594	      3.78172854	     16.96611273	      0.03740228	      0.74495947	     -0.32014791	      8.95668517	     -2.60844819	     -8.59020208	    -19.35923319	     16.47148290	      2.58701115	      0.00000000	    -11.35595321	     -0.03089170	      7.18252648	    -56.98290887	      4.68658310	     10.85896047	      0.00000000	    -31.15516809	      7.76446731	     -4.02559214
      4.62500000	     12.96873620	      3.12966196	     16.98338239	      0.04494582	      0.74511312	     -0.31975261	      8.69821339	     -1.70257214	     -8.44638752	    -19.70860755	     16.40125618	      2.33638226	      0.00000000	    -10.09280139	     -0.65442629	      7.03186090	    -58.89266518	      3.15008087	      9.69791568	      0.00000000	    -31.09395793	      8.37453425	     -3.49677392
      4.63000000	     13.02803229	      2.49332849	     17.00450674	      0.05240497	      0.74530782	     -0.31939869	      8.39687848	     -0.82470723	     -8.38514667	    -19.99306413	     16.43964466	      2.20156466	      0.00000000	     -8.82598248	     -1.23059748	      6.96301149	    -60.70243144	      1.95097617	      8.54042849	      0.00000000	    -31.06270113	      8.97762177	     -2.99121742
      4.63500000	     13.17390882	      1.87558769	     16.99320455	      0.05983680	      0.74563830	     -0.31909566	      7.94516474	      0.04572384	     -8.39777839	    -20.17130063	     16.59161752	      2.32286942	      0.00000000	     -7.67290129	     -1.77903834	      6.92596199	    -62.36857595	      1.12938447	      7.44081849	      0.00000000	    -31.14520367	      9.58286549	     -2.46401811
      4.64000000	     13.17020249	      1.30097887	     17.05471199	      0.06709615	      0.74584737	     -0.31884924	      7.63569734	      0.81978366	     -8.50012929	    -20.34213313	     16.80135505	      2.23316903	      0.00000000	     -6.31662173	     -2.19520566	      7.04589517	    -63.99176268	      0.60228072	      6.29467220	      0.00000000	    -31.09507738	     10.12861786	     -2.04488391
      4.64500000	     13.30096239	      0.74899063	     17.03426377	      0.07437380	      0.74624460	     -0.31860591	      7.10584809	      1.61610850	     -8.56133859	    -20.36374277	     17.12057352	      2.42444592	      0.00000000	     -5.15008740	     -2.59582402	      7.12707594	    -65.44556824	      0.46561360	      5.26537674	      0.00000000	    -31.21246582	     10.66418642	     -1.57253954
      4.65000000	     13.35200582	      0.23885822	     17.08019993	      0.08154242	      0.74660789	     -0.31846863	      6.61945349	      2.32882621	     -8.77090352	    -20.33576082	     17.47904085	      2.55726122	      0.00000000	     -3.87490979	     -2.89035024	      7.32631040	    -66.82037948	      0.55903736	      4.24128922	      0.00000000	    -31.25827300	     11.16575652	     -1.16242982
      4.65500000	     13.45670731	     -0.23321530	     17.06570083	      0.08868769	      0.74707230	     -0.31831362	      6.01737336	      3.03356115	     -8.88809542	    -20.20616717	     17.88444159	      2.79552036	      0.00000000	     -2.69170409	     -3.13174345	      7.49530027	    -68.04794545	      0.96906069	      3.28602677	      0.00000000	    -31.38930330	     11.62446110	     -0.76320688
      4.66000000	     13.50104598	     -0.65946328	     17.11631868	      0.09575684	      0.74751617	     -0.31825403	      5.42857321	      3.66044473	     -9.13736217	    -20.01012404	     18.35551592	      3.05993333	      0.00000000	     -1.43367185	     -3.27382189	      7.77266117	    -69.17614203	      1.57443033	      2.40140440	      0.00000000	    -31.46012114	     12.04894301	     -0.44423940
      4.66500000	     13.62199024	     -1.04970421	     17.06566292	      0.10283117	      0.74809437	     -0.31815344	      4.70593805	      4.29217875	     -9.25727514	    -19.72165373	     18.79191772	      3.32945861	      0.00000000	     -0.30836925	     -3.38259909	      7.94822168	    -70.13346274	      2.35650100	      1.55001683	      0.00000000	    -31.64892519	     12.41406166	     -0.02538119
      4.67000000	     13.72959122	     -1.39620637	     17.03704514	      0.10987094	      0.74869418	     -0.31810554	      3.94695229	      4.87539105	     -9.40038107	    -19.36345835	     19.24527042	      3.60858424	      0.00000000	      0.81853241	     -3.42338573	      8.15817845	    -70.96473444	      3.27748445	      0.76723940	      0.00000000	    -31.82816137	     12.74447503	      0.33914495
      4.67500000	     13.83087663	     -1.69713789	     17.00038290	      0.11690218	      0.74932718	     -0.31808233	      3.14513788	      5.41416056	     -9.52695640	    -18.93671628	     19.69630337	      3.90247834	      0.00000000	      1.92306806	     -3.40098902	      8.36586733	    -71.65175875	      4.29981421	      0.06310194	      0.00000000	    -32.01027834	     13.02484512	      0.68207023
      4.68000000	     13.94011143	     -1.95277722	     16.97404096	      0.12391342	      0.74999858	     -0.31808306	      2.28796945	      5.90931014	     -9.65951866	    -18.44381387	     20.13525398	      4.25915852	      0.00000000	      2.99206761	     -3.32370205	      8.59014449	    -72.19495933	      5.40634759	     -0.53451567	      0.00000000	    -32.21068823	     13.26459658	      0.97090332
